<svg xmlns="http://www.w3.org/2000/svg" viewBox="0 0 595.17 352.9"><title>greenРесурс 1</title><path d="M374.55,173.82q0,54.6-13.86,95.3t-39.25,62.24Q296,352.9,263.29,352.9H170.84V0h82.72q57.74,0,89.37,45T374.55,173.82Zm-48.17,0q0-56.85-19.13-86.78T252.59,57.11h-33.9V295.79h40.55q30.81,0,49-32.81t18.14-89.16Z" fill="#5db54b"/><line x1="106.65" y1="332.97" x2="18.39" y2="242.59" fill="#5db54b"/><path d="M119,320.6,41.8,241.51l-11-11.29c-6.41-6.56-18.41-6.91-24.75,0S-.82,248,6,255l77.23,79.09,11,11.3c6.41,6.56,18.41,6.91,24.75,0s6.84-17.75,0-24.75Z" fill="#5db54b"/><path d="M95.49,136.86,16.32,217.94,5,229.46c-6.41,6.56-7,18.3,0,24.75s17.91,7,24.75,0L109,173.13l11.25-11.52c6.4-6.56,7-18.31,0-24.75s-17.91-7-24.75,0Z" fill="#5db54b"/><line x1="412.37" y1="335.47" x2="449.18" y2="114.42" fill="#5db54b"/><path d="M429.25,340.12l12.44-74.71,19.82-119L466,119.07c1.5-9-2.35-19.28-12.22-21.53-8.45-1.92-19.92,2.57-21.53,12.22l-12.44,74.71L400,303.52l-4.54,27.3c-1.5,9,2.35,19.28,12.22,21.52,8.45,1.93,19.92-2.56,21.53-12.22Z" fill="#5db54b"/><line x1="488.24" y1="149.08" x2="576.79" y2="239.42" fill="#5db54b"/><path d="M475.86,161.45l77.49,79.05,11.07,11.29c6.42,6.55,18.4,6.92,24.75,0S596,234,589.17,227l-77.49-79-11.07-11.3c-6.42-6.55-18.4-6.92-24.75,0S469,154.46,475.86,161.45Z" fill="#5db54b"/><line x1="487.63" y1="333.36" x2="577.75" y2="240.17" fill="#5db54b"/><path d="M500,345.73l78.91-81.59,11.21-11.59c6.37-6.59,7-18.28,0-24.75s-18-7-24.74,0L486.5,309.39,475.25,321c-6.37,6.59-7,18.29,0,24.75s17.95,7,24.75,0Z" fill="#5db54b"/></svg>